#!OML:ASF X:\für Bonn\!DataBase\2005_08_12_Daniel\c3d\Daniel.ASF
:FULLY-SPECIFIED
:DEGREES
67
root 0.724899 8.40143 -1.05658 60.9603 -88.3762 -88.6657
lowerback 57.7264 -3.36787 5.90803
upperback 1.53026 -2.03054 -2.25736
thorax -20.5318 -1.76153 -4.03614
lowerneck 8.55402 1.46407 -2.03892
upperneck -3.9969 1.72814 0.139744
head -2.7902 0.885922 0.313386
rclavicle 2.5345e-015 3.97569e-016
rhumerus 69.7797 4.23872 -90.0972
rradius 8.45047
rwrist 52.2959
rhand -18.5515 7.6426
rfingers 7.12502
rthumb 7.73808 -22.1958
lclavicle 2.5345e-015 3.97569e-016
lhumerus 68.7633 2.12474 97.4102
lradius 11.2099
lwrist -70.0896
lhand -15.5563 -0.466304
lfingers 7.12502
lthumb 10.6282 29.2449
rfemur -6.14977 -62.4961 -73.6478
rtibia 140.762
rfoot -7.15433 67.4329
rtoes 1.02608
lfemur -37.8948 60.435 42.7556
ltibia 139.39
lfoot -24.3644 -56.3788
ltoes 1.71706
68
root 0.730308 8.20859 -1.04623 64.2968 -88.3459 -92.2551
lowerback 58.2924 -3.40369 5.95162
upperback 1.493 -2.03483 -2.27069
thorax -20.6244 -1.77555 -4.0568
lowerneck 8.52996 1.45367 -1.94124
upperneck -4.08295 1.71735 0.00520799
head -2.81196 0.884482 0.253339
rclavicle -7.15625e-015 -1.19271e-015
rhumerus 70.0831 4.17979 -90.0547
rradius 8.41633
rwrist 51.9467
rhand -18.4988 7.91381
rfingers 7.12502
rthumb 7.7889 -21.9227
lclavicle -7.15625e-015 -1.19271e-015
lhumerus 68.8507 2.07302 97.2005
lradius 11.3098
lwrist -69.7742
lhand -15.4858 -0.6141
lfingers 7.12502
lthumb 10.6962 29.0936
rfemur -0.49964 -63.0889 -82.2955
rtibia 142.384
rfoot -9.19457 69.2113
rtoes 0.761085
lfemur -35.1566 62.8382 48.103
ltibia 140.991
lfoot -25.6414 -57.7247
ltoes 1.17261
69
root 0.734643 8.01751 -1.03665 66.7787 -88.2963 -94.9856
lowerback 58.7949 -3.45679 5.99662
upperback 1.4861 -2.06451 -2.28443
thorax -20.6716 -1.79844 -4.06526
lowerneck 8.52577 1.45811 -1.8469
upperneck -4.21092 1.7262 -0.114815
head -2.85229 0.892629 0.197244
rclavicle 1.04362e-015 1.70955e-014
rhumerus 70.2908 4.16923 -90.049
rradius 8.52337
rwrist 51.6697
rhand -18.4471 8.12497
rfingers 7.12502
rthumb 7.83886 -21.7097
lclavicle 1.04362e-015 1.70955e-014
lhumerus 69.0581 2.14928 97.2674
lradius 11.233
lwrist -69.9536
lhand -15.4903 -0.788166
lfingers 7.12502
lthumb 10.6918 28.9198
rfemur 5.16041 -63.1957 -90.9655
rtibia 143.975
rfoot -12.065 70.884
rtoes 0.522887
lfemur -31.8814 65.0168 54.0309
ltibia 142.557
lfoot -26.7033 -59.0792
ltoes 0.880455
70
root 0.737565 7.82824 -1.02612 69.6894 -88.2488 -98.1507
lowerback 59.2508 -3.48559 6.03664
upperback 1.49887 -2.06922 -2.28725
thorax -20.684 -1.81076 -4.07289
lowerneck 8.48461 1.45744 -1.73511
upperneck -4.29557 1.73049 -0.242042
head -2.87058 0.89814 0.136361
rclavicle -1.33186e-014 -1.35174e-014
rhumerus 70.4162 4.11533 -90.0058
rradius 8.69072
rwrist 51.4153
rhand -18.436 8.38747
rfingers 7.12502
rthumb 7.84949 -21.4468
lclavicle -1.33186e-014 -1.35174e-014
lhumerus 69.2924 2.24166 97.4629
lradius 11.0976
lwrist -70.3367
lhand -15.5068 -0.939468
lfingers 7.12502
lthumb 10.6759 28.7693
rfemur 10.2887 -62.8842 -99.1314
rtibia 145.549
rfoot -16.0389 72.3979
rtoes 0.0532334
lfemur -27.9237 66.935 60.6715
ltibia 144.094
lfoot -27.7923 -60.3843
ltoes 0.613173
71
root 0.738211 7.64191 -1.01575 71.5638 -88.2096 -100.256
lowerback 59.6357 -3.54303 6.09855
upperback 1.52134 -2.10408 -2.32342
thorax -20.6822 -1.83561 -4.11496
lowerneck 8.47428 1.46329 -1.64488
upperneck -4.38471 1.74477 -0.300236
head -2.89743 0.906466 0.100772
rclavicle 1.19271e-014 -5.96354e-015
rhumerus 70.4496 4.0217 -89.992
rradius 8.88562
rwrist 51.219
rhand -18.5211 8.67086
rfingers 7.12502
rthumb 7.76743 -21.1665
lclavicle 1.19271e-014 -5.96354e-015
lhumerus 69.4226 2.29783 97.5148
lradius 11.0852
lwrist -70.7069
lhand -15.5193 -1.1441
lfingers 7.12502
lthumb 10.6638 28.5653
rfemur 14.8526 -62.2206 -106.783
rtibia 147.092
rfoot -21.4499 73.7047
rtoes -0.522166
lfemur -23.6366 68.5356 67.6415
ltibia 145.598
lfoot -28.6742 -61.6448
ltoes 0.477751
72
root 0.734907 7.46333 -1.00564 73.3343 -88.1694 -102.248
lowerback 59.9309 -3.59751 6.16155
upperback 1.57738 -2.13775 -2.34617
thorax -20.6284 -1.85854 -4.14334
lowerneck 8.51906 1.4881 -1.66286
upperneck -4.50729 1.77439 -0.301828
head -2.94827 0.922446 0.100962
rclavicle 1.78906e-015 -8.34896e-015
rhumerus 70.442 3.91849 -89.9444
rradius 9.08804
rwrist 51.0829
rhand -18.579 8.95154
rfingers 7.12502
rthumb 7.71155 -20.8878
lclavicle 1.78906e-015 -8.34896e-015
lhumerus 69.515 2.34009 97.4048
lradius 11.0968
lwrist -70.9446
lhand -15.5982 -1.29069
lfingers 7.12502
lthumb 10.5878 28.4226
rfemur 18.4998 -61.3004 -113.475
rtibia 148.573
rfoot -27.7183 74.7561
rtoes -1.20846
lfemur -18.9428 69.8018 74.9908
ltibia 147.029
lfoot -29.4456 -62.8675
ltoes 0.262386
73
root 0.729967 7.29499 -0.994814 75.3675 -88.1307 -104.498
lowerback 60.184 -3.64304 6.21618
upperback 1.65074 -2.16858 -2.36381
thorax -20.5482 -1.87919 -4.16403
lowerneck 8.58291 1.51943 -1.69559
upperneck -4.64031 1.81112 -0.294072
head -3.0068 0.941953 0.106152
rclavicle 9.93923e-016 -6.75868e-015
rhumerus 70.3912 3.81507 -89.8871
rradius 9.26708
rwrist 51.0637
rhand -18.7589 9.22641
rfingers 7.12502
rthumb 7.53788 -20.6193
lclavicle 9.93923e-016 -6.75868e-015
lhumerus 69.5628 2.43853 97.4291
lradius 11.1373
lwrist -71.3237
lhand -15.7954 -1.52774
lfingers 7.12502
lthumb 10.3975 28.1952
rfemur 21.2593 -60.2423 -119.185
rtibia 149.957
rfoot -34.6263 75.5479
rtoes -1.84611
lfemur -14.0372 70.6954 82.4766
ltibia 148.369
lfoot -29.9267 -64.1218
ltoes 0.264582
74
root 0.723712 7.14102 -0.984228 76.5323 -88.0835 -105.862
lowerback 60.4109 -3.71942 6.30526
upperback 1.71379 -2.21378 -2.39238
thorax -20.481 -1.90735 -4.20578
lowerneck 8.63688 1.55992 -1.79107
upperneck -4.72684 1.85854 -0.20921
head -3.04943 0.96468 0.147054
rclavicle 2.38542e-015 -3.18055e-015
rhumerus 70.3447 3.68681 -89.8271
rradius 9.3591
rwrist 51.1064
rhand -18.9096 9.48461
rfingers 7.12502
rthumb 7.39243 -20.3662
lclavicle 2.38542e-015 -3.18055e-015
lhumerus 69.5086 2.47079 97.1748
lradius 11.1911
lwrist -71.3619
lhand -16.1157 -1.70606
lfingers 7.12502
lthumb 10.0886 28.0321
rfemur 23.2874 -59.0908 -124.031
rtibia 151.221
rfoot -41.7559 76.1342
rtoes -2.51037
lfemur -9.46209 71.3111 89.4822
ltibia 149.604
lfoot -30.5056 -65.1917
ltoes 0.188034
75
root 0.718249 7.00189 -0.972823 78.1211 -88.0469 -107.643
lowerback 60.6528 -3.79477 6.39729
upperback 1.76798 -2.25974 -2.44488
thorax -20.4277 -1.93657 -4.27702
lowerneck 8.67961 1.5912 -1.80754
upperneck -4.82494 1.90066 -0.160694
head -3.09255 0.984726 0.162667
rclavicle -1.31198e-014 -1.59028e-015
rhumerus 70.4364 3.51575 -89.7764
rradius 9.2049
rwrist 51.2967
rhand -19.1319 9.7003
rfingers 7.12502
rthumb 7.17781 -20.158
lclavicle -1.31198e-014 -1.59028e-015
lhumerus 69.4354 2.45908 96.8336
lradius 11.1632
lwrist -71.2749
lhand -16.5186 -1.90398
lfingers 7.12502
lthumb 9.69987 27.8527
rfemur 24.537 -58.006 -127.896
rtibia 152.337
rfoot -48.3271 76.5614
rtoes -3.05695
lfemur -5.23665 71.6453 95.9415
ltibia 150.705
lfoot -30.8563 -66.2087
ltoes 0.12529
76
root 0.714629 6.8739 -0.960471 79.2482 -87.996 -108.938
lowerback 60.8653 -3.87889 6.50084
upperback 1.82823 -2.30584 -2.48401
thorax -20.3631 -1.96584 -4.33758
lowerneck 8.61801 1.61686 -1.85201
upperneck -4.8444 1.93523 -0.104244
head -3.08906 1.00074 0.187334
rclavicle 1.3418e-014 3.57812e-015
rhumerus 70.6107 3.36556 -89.7126
rradius 8.95657
rwrist 51.4353
rhand -19.3017 9.87149
rfingers 7.12502
rthumb 7.01392 -19.9923
lclavicle 1.3418e-014 3.57812e-015
lhumerus 69.402 2.43578 96.4336
lradius 11.0164
lwrist -70.9932
lhand -17.0324 -2.07127
lfingers 7.12502
lthumb 9.20403 27.7079
rfemur 25.3824 -56.9671 -131.147
rtibia 153.373
rfoot -55.4879 76.5115
rtoes -3.83725
lfemur -1.82479 71.8774 101.45
ltibia 151.73
lfoot -31.1861 -67.0401
ltoes 0.0101049
77
root 0.713324 6.75042 -0.947765 80.4465 -87.9569 -110.297
lowerback 61.0393 -3.96259 6.61283
upperback 1.90031 -2.35157 -2.53848
thorax -20.2821 -1.99504 -4.42119
lowerneck 8.5377 1.64439 -1.89311
upperneck -4.85563 1.97425 -0.0333568
head -3.07939 1.01833 0.216057
rclavicle -9.83984e-015 4.77083e-015
rhumerus 70.7785 3.20929 -89.6632
rradius 8.71195
rwrist 51.7285
rhand -19.4202 9.95743
rfingers 7.12502
rthumb 6.89954 -19.9101
lclavicle -9.83984e-015 4.77083e-015
lhumerus 69.3079 2.26255 95.5956
lradius 10.8426
lwrist -70.1116
lhand -17.5869 -2.18683
lfingers 7.12502
lthumb 8.66898 27.6152
rfemur 25.8107 -56.0741 -133.886
rtibia 154.317
rfoot -61.2513 76.5869
rtoes -4.35947
lfemur 1.17263 72.0231 106.501
ltibia 152.716
lfoot -31.1738 -67.8886
ltoes -0.0925129
78
root 0.714247 6.63499 -0.934734 81.5257 -87.9141 -111.515
lowerback 61.1671 -4.04689 6.72371
upperback 1.98065 -2.39976 -2.58906
thorax -20.1883 -2.0242 -4.49911
lowerneck 8.40386 1.66525 -1.92278
upperneck -4.82587 2.0061 0.0240036
head -3.04503 1.03244 0.239353
rclavicle -5.76476e-015 6.75868e-015
rhumerus 70.9119 3.08057 -89.6239
rradius 8.51222
rwrist 51.9085
rhand -19.4674 10.0223
rfingers 7.12502
rthumb 6.85394 -19.8468
lclavicle -5.76476e-015 6.75868e-015
lhumerus 69.1606 2.11516 94.8595
lradius 10.743
lwrist -69.2129
lhand -18.0971 -2.39319
lfingers 7.12502
lthumb 8.17659 27.4286
rfemur 25.7175 -55.5461 -135.946
rtibia 155.144
rfoot -64.6289 77.2642
rtoes -4.44806
lfemur 3.57949 72.1409 110.871
ltibia 153.638
lfoot -30.8243 -68.7125
ltoes -0.104575
79
root 0.716189 6.5301 -0.922516 82.6173 -87.8672 -112.758
lowerback 61.2832 -4.12406 6.81958
upperback 2.06165 -2.44645 -2.62431
thorax -20.0919 -2.05136 -4.55301
lowerneck 8.33206 1.68984 -1.98439
upperneck -4.82145 2.03502 0.0432143
head -3.03123 1.04729 0.255409
rclavicle -1.6201e-014 1.98785e-015
rhumerus 70.9787 2.94852 -89.5639
rradius 8.37571
rwrist 51.9326
rhand -19.4666 10.089
rfingers 7.12502
rthumb 6.85479 -19.78
lclavicle -1.6201e-014 1.98785e-015
lhumerus 68.8918 1.9218 93.8853
lradius 10.7713
lwrist -67.966
lhand -18.4766 -2.58366
lfingers 7.12502
lthumb 7.81031 27.2521
rfemur 25.3828 -55.1387 -137.627
rtibia 155.889
rfoot -67.7469 78.0156
rtoes -4.53835
lfemur 5.6452 72.1828 114.768
ltibia 154.477
lfoot -30.779 -69.4365
ltoes -0.153959
80
root 0.723858 6.49485 -0.912808 83.3076 -87.8242 -113.543
lowerback 61.3113 -4.20339 6.93034
upperback 2.15312 -2.49174 -2.6732
thorax -19.9796 -2.07748 -4.63259
lowerneck 8.26584 1.70193 -2.04963
upperneck -4.80687 2.04959 0.10181
head -3.0155 1.05354 0.285642
rclavicle 2.88238e-015 1.43125e-014
rhumerus 70.9243 2.78935 -89.5213
rradius 8.36984
rwrist 51.7794
rhand -19.4529 10.2086
rfingers 7.12502
rthumb 6.86798 -19.66
lclavicle 2.88238e-015 1.43125e-014
lhumerus 68.5337 1.61105 92.6902
lradius 10.9106
lwrist -66.3996
lhand -18.7767 -2.73061
lfingers 7.12502
lthumb 7.52068 27.1157
rfemur 26.0835 -54.5596 -139.326
rtibia 156.123
rfoot -70.768 78.2532
rtoes -4.5251
lfemur 9.19439 71.961 119.171
ltibia 154.778
lfoot -31.9205 -69.9202
ltoes -0.186212
81
root 0.727569 6.41838 -0.900955 84.0542 -87.7808 -114.383
lowerback 61.3141 -4.28382 7.04209
upperback 2.25781 -2.54269 -2.7308
thorax -19.8507 -2.10538 -4.72035
lowerneck 8.25635 1.71825 -2.06571
upperneck -4.83683 2.06972 0.100857
head -3.02442 1.06409 0.287046
rclavicle 6.4605e-015 3.97569e-015
rhumerus 70.7929 2.66607 -89.5129
rradius 8.45141
rwrist 51.4297
rhand -19.4594 10.3171
rfingers 7.12502
rthumb 6.86167 -19.5517
lclavicle 6.4605e-015 3.97569e-015
lhumerus 68.1443 1.27634 91.4487
lradius 11.1208
lwrist -64.8008
lhand -19.0243 -2.85975
lfingers 7.12502
lthumb 7.28167 26.995
rfemur 25.6473 -54.4993 -140.385
rtibia 156.643
rfoot -72.4248 79.1154
rtoes -4.44889
lfemur 10.8026 71.9114 122.178
ltibia 155.398
lfoot -31.8004 -70.5479
ltoes -0.190066
